<?xml version="1.0" encoding="UTF-8"?>
<!--
  Drug-Pred AI — Admin Dashboard Figma Frame
  Frame: 1440 × 1130 · Design tokens khớp tailwind.config.js
  Import vào Figma: kéo thả file → Frame Selection → chỉnh sửa layers
-->
<svg xmlns="http://www.w3.org/2000/svg" width="1440" height="1130" viewBox="0 0 1440 1130">
<defs>
  <linearGradient id="brand" x1="0%" y1="0%" x2="100%" y2="0%">
    <stop offset="0%" stop-color="#0891B2"/>
    <stop offset="100%" stop-color="#22D3EE"/>
  </linearGradient>
  <linearGradient id="lineArea" x1="0%" y1="0%" x2="0%" y2="100%">
    <stop offset="0%" stop-color="#0891B2" stop-opacity="0.13"/>
    <stop offset="100%" stop-color="#0891B2" stop-opacity="0"/>
  </linearGradient>
  <style>
    text { font-family: Figtree, 'Noto Sans', system-ui, sans-serif; }
    .mono { font-family: 'JetBrains Mono', 'Fira Code', monospace; }
  </style>
</defs>

<!-- ══ Background ══ -->
<rect width="1440" height="1130" fill="#F8FAFC"/>

<!-- ══ Header gradient strip ══ -->
<rect width="1440" height="2" fill="url(#brand)"/>

<!-- ══ Header bar ══ -->
<rect y="2" width="1440" height="50" fill="white"/>
<line x1="0" y1="52" x2="1440" y2="52" stroke="#F1F5F9" stroke-width="1"/>

<!-- Back button -->
<text x="24" y="33" fill="#164E6399" font-size="13" font-weight="600">← Quay lại</text>

<!-- Center brand -->
<text x="660" y="33" fill="#164E6366" font-size="10" font-weight="700" letter-spacing="3">ADMIN</text>
<text x="706" y="33" fill="#164E6344" font-size="11"> · </text>
<text x="718" y="33" fill="#0891B2" font-size="14" font-weight="800">Drug-Pred AI</text>

<!-- Health indicator -->
<circle cx="1088" cy="28" r="3.5" fill="#22c55e"/>
<circle cx="1088" cy="28" r="6" fill="#22c55e" fill-opacity="0.25"/>
<text x="1098" y="33" fill="#16a34a" font-size="12" font-weight="600">Hệ thống hoạt động</text>

<!-- Clock -->
<text x="1230" y="33" fill="#164E6366" font-size="12" font-weight="500" class="mono">10:45:23</text>

<!-- Refresh button -->
<rect x="1288" y="17" width="80" height="26" rx="8" fill="white" stroke="#E2E8F0" stroke-width="1"/>
<text x="1328" y="33" text-anchor="middle" fill="#164E6388" font-size="11" font-weight="600">↻ Làm mới</text>

<!-- Logout -->
<text x="1388" y="33" fill="#164E6366" font-size="12" font-weight="600">Đăng xuất</text>

<!-- ══════════════════════════════════════════════
     KPI ROW  y=68  h=88
══════════════════════════════════════════════ -->

<!-- KPI 1: Users -->
<rect x="16" y="68" width="267" height="88" rx="12" fill="white" stroke="#F1F5F9" stroke-width="1"/>
<rect x="28" y="80" width="34" height="34" rx="9" fill="#ECFDF5"/>
<text x="45" y="103" text-anchor="middle" fill="#16a34a" font-size="16">👥</text>
<text x="70" y="101" fill="#164E63" font-size="24" font-weight="800">30</text>
<text x="70" y="116" fill="#164E6377" font-size="9" font-weight="700" letter-spacing="1">NGƯỜI DÙNG</text>
<text x="70" y="131" fill="#164E6355" font-size="10">Tổng tài khoản</text>

<!-- KPI 2: Predictions -->
<rect x="299" y="68" width="267" height="88" rx="12" fill="white" stroke="#F1F5F9" stroke-width="1"/>
<rect x="311" y="80" width="34" height="34" rx="9" fill="#EFF6FF"/>
<text x="328" y="103" text-anchor="middle" fill="#0891B2" font-size="16">🤖</text>
<text x="353" y="101" fill="#164E63" font-size="24" font-weight="800">42</text>
<text x="353" y="116" fill="#164E6377" font-size="9" font-weight="700" letter-spacing="1">DỰ ĐOÁN</text>
<text x="353" y="131" fill="#164E6355" font-size="10">Từ hệ thống AI</text>

<!-- KPI 3: Records -->
<rect x="582" y="68" width="267" height="88" rx="12" fill="white" stroke="#F1F5F9" stroke-width="1"/>
<rect x="594" y="80" width="34" height="34" rx="9" fill="#FFFBEB"/>
<text x="611" y="103" text-anchor="middle" fill="#d97706" font-size="16">📋</text>
<text x="636" y="101" fill="#164E63" font-size="24" font-weight="800">50</text>
<text x="636" y="116" fill="#164E6377" font-size="9" font-weight="700" letter-spacing="1">BỆNH ÁN</text>
<text x="636" y="131" fill="#164E6355" font-size="10">Hồ sơ đã tạo</text>

<!-- KPI 4: Drug Groups -->
<rect x="865" y="68" width="267" height="88" rx="12" fill="white" stroke="#F1F5F9" stroke-width="1"/>
<rect x="877" y="80" width="34" height="34" rx="9" fill="#F5F3FF"/>
<text x="894" y="103" text-anchor="middle" fill="#7c3aed" font-size="16">💊</text>
<text x="919" y="101" fill="#164E63" font-size="24" font-weight="800">13</text>
<text x="919" y="116" fill="#164E6377" font-size="9" font-weight="700" letter-spacing="1">NHÓM THUỐC</text>
<text x="919" y="131" fill="#164E6355" font-size="10">Được phân loại</text>

<!-- KPI 5: Avg Confidence -->
<rect x="1148" y="68" width="276" height="88" rx="12" fill="white" stroke="#F1F5F9" stroke-width="1"/>
<rect x="1160" y="80" width="34" height="34" rx="9" fill="#E0F2FE"/>
<text x="1177" y="103" text-anchor="middle" fill="#0891B2" font-size="16">⚡</text>
<text x="1202" y="101" fill="#164E63" font-size="24" font-weight="800">84.1%</text>
<text x="1202" y="116" fill="#164E6377" font-size="9" font-weight="700" letter-spacing="1">ĐỘ TIN CẬY TB</text>
<text x="1202" y="131" fill="#164E6355" font-size="10">Trung bình mô hình</text>

<!-- ══════════════════════════════════════════════
     MAIN 2-COLUMN GRID  y=172
     Left  x=16..712  w=696
     Right x=728..1424 w=696
══════════════════════════════════════════════ -->

<!-- ── LEFT TOP: Dự đoán 30 ngày ── -->
<rect x="16" y="172" width="696" height="272" rx="12" fill="white" stroke="#F1F5F9" stroke-width="1"/>
<text x="32" y="198" fill="#164E63" font-size="13" font-weight="700">Dự đoán 30 ngày qua</text>
<rect x="608" y="184" width="88" height="20" rx="10" fill="#EFF6FF" stroke="#DBEAFE" stroke-width="1"/>
<text x="652" y="197" text-anchor="middle" fill="#0891B2" font-size="9" font-weight="700" letter-spacing="1">REALTIME</text>

<!-- Chart grid lines -->
<line x1="60" y1="210" x2="696" y2="210" stroke="#F8FAFC" stroke-width="1"/>
<line x1="60" y1="240" x2="696" y2="240" stroke="#F8FAFC" stroke-width="1"/>
<line x1="60" y1="270" x2="696" y2="270" stroke="#F8FAFC" stroke-width="1"/>
<line x1="60" y1="300" x2="696" y2="300" stroke="#F8FAFC" stroke-width="1"/>
<line x1="60" y1="330" x2="696" y2="330" stroke="#F8FAFC" stroke-width="1"/>
<line x1="60" y1="360" x2="696" y2="360" stroke="#F8FAFC" stroke-width="1"/>
<!-- Y axis labels -->
<text x="52" y="213" text-anchor="end" fill="#94a3b8" font-size="10">30</text>
<text x="52" y="273" text-anchor="end" fill="#94a3b8" font-size="10">20</text>
<text x="52" y="333" text-anchor="end" fill="#94a3b8" font-size="10">10</text>
<text x="52" y="393" text-anchor="end" fill="#94a3b8" font-size="10">0</text>
<!-- X axis labels -->
<text x="70"  y="415" fill="#94a3b8" font-size="9">05-29</text>
<text x="235" y="415" fill="#94a3b8" font-size="9">06-04</text>
<text x="405" y="415" fill="#94a3b8" font-size="9">06-10</text>
<text x="565" y="415" fill="#94a3b8" font-size="9">06-16</text>
<text x="660" y="415" fill="#94a3b8" font-size="9">06-23</text>

<!-- Area fill under line -->
<path d="M 70 358 L 91 383 L 112 338 L 134 305 L 155 318 L 176 271 L 198 291 L 219 318 L 240 358 L 262 331 L 283 305 L 304 278 L 326 251 L 347 291 L 368 318 L 390 338 L 411 305 L 432 271 L 454 238 L 475 251 L 496 291 L 518 318 L 539 278 L 560 265 L 582 305 L 603 338 L 624 318 L 646 291 L 667 271 L 688 371 L 688 395 L 70 395 Z"
      fill="url(#lineArea)"/>

<!-- Line chart -->
<polyline
  points="70,358 91,383 112,338 134,305 155,318 176,271 198,291 219,318 240,358 262,331 283,305 304,278 326,251 347,291 368,318 390,338 411,305 432,271 454,238 475,251 496,291 518,318 539,278 560,265 582,305 603,338 624,318 646,291 667,271 688,371"
  fill="none" stroke="#0891B2" stroke-width="2.5" stroke-linejoin="round" stroke-linecap="round"/>

<!-- Active dot (last visible point) -->
<circle cx="688" cy="371" r="5" fill="#0891B2"/>
<circle cx="688" cy="371" r="3" fill="white"/>

<!-- ── LEFT BOTTOM: Phân phối nhóm thuốc ── -->
<rect x="16" y="460" width="696" height="272" rx="12" fill="white" stroke="#F1F5F9" stroke-width="1"/>
<text x="32" y="486" fill="#164E63" font-size="13" font-weight="700">Phân phối nhóm thuốc</text>

<!-- Horizontal bar chart - 5 bars -->
<!-- Max value=48, chart_x_start=184, chart_x_end=688, chart_width=504 -->

<!-- Bar 1: Thuốc giảm đau 48 -->
<text x="180" y="519" text-anchor="end" fill="#64748b" font-size="10">Thuốc giảm đau</text>
<rect x="184" y="506" width="420" height="20" rx="4" fill="#8b5cf6"/>
<text x="612" y="519" fill="#164E6388" font-size="10" font-weight="600">48</text>

<!-- Bar 2: Corticosteroid 45 -->
<text x="180" y="548" text-anchor="end" fill="#64748b" font-size="10">Corticosteroid</text>
<rect x="184" y="535" width="394" height="20" rx="4" fill="#8b5cf6"/>
<text x="586" y="548" fill="#164E6388" font-size="10" font-weight="600">45</text>

<!-- Bar 3: Kháng sinh 42 -->
<text x="180" y="577" text-anchor="end" fill="#64748b" font-size="10">Kháng sinh</text>
<rect x="184" y="564" width="368" height="20" rx="4" fill="#8b5cf6"/>
<text x="560" y="577" fill="#164E6388" font-size="10" font-weight="600">42</text>

<!-- Bar 4: Thuốc kháng nấm & virus 38 -->
<text x="180" y="606" text-anchor="end" fill="#64748b" font-size="9.5">Thuốc kháng nấm &amp; virus</text>
<rect x="184" y="593" width="333" height="20" rx="4" fill="#8b5cf6"/>
<text x="525" y="606" fill="#164E6388" font-size="10" font-weight="600">38</text>

<!-- Bar 5: Thuốc tâm thần 35 -->
<text x="180" y="635" text-anchor="end" fill="#64748b" font-size="10">Thuốc tâm thần</text>
<rect x="184" y="622" width="306" height="20" rx="4" fill="#8b5cf6"/>
<text x="498" y="635" fill="#164E6388" font-size="10" font-weight="600">35</text>

<!-- X axis grid -->
<line x1="184" y1="650" x2="688" y2="650" stroke="#F1F5F9" stroke-width="1"/>
<text x="184" y="664" fill="#94a3b8" font-size="9">0</text>
<text x="300" y="664" fill="#94a3b8" font-size="9">10</text>
<text x="435" y="664" fill="#94a3b8" font-size="9">25</text>
<text x="570" y="664" fill="#94a3b8" font-size="9">40</text>
<text x="672" y="664" fill="#94a3b8" font-size="9">50</text>

<!-- ── RIGHT: Quản lý người dùng ── -->
<rect x="728" y="172" width="696" height="560" rx="12" fill="white" stroke="#F1F5F9" stroke-width="1"/>

<!-- Panel header -->
<text x="744" y="198" fill="#164E63" font-size="13" font-weight="700">Quản lý người dùng</text>
<rect x="1280" y="184" width="128" height="26" rx="8" fill="white" stroke="#0891B233" stroke-width="1"/>
<text x="1344" y="200" text-anchor="middle" fill="#0891B2" font-size="11" font-weight="600">+ Thêm người dùng</text>

<!-- Table header -->
<line x1="744" y1="216" x2="1408" y2="216" stroke="#F1F5F9" stroke-width="1"/>
<text x="744"  y="232" fill="#164E6355" font-size="9"  font-weight="700" letter-spacing="1">TÀI KHOẢN</text>
<text x="944"  y="232" fill="#164E6355" font-size="9"  font-weight="700" letter-spacing="1">VAI TRÒ</text>
<text x="1072" y="232" fill="#164E6355" font-size="9"  font-weight="700" letter-spacing="1">TRẠNG THÁI</text>
<text x="1180" y="232" fill="#164E6355" font-size="9"  font-weight="700" letter-spacing="1">NGÀY TẠO</text>
<text x="1300" y="232" fill="#164E6355" font-size="9"  font-weight="700" letter-spacing="1">HÀNH ĐỘNG</text>
<line x1="744" y1="238" x2="1408" y2="238" stroke="#F1F5F9" stroke-width="1"/>

<!-- Row 1: admin -->
<rect x="728" y="239" width="696" height="32" fill="#F8FAFC"/>
<text x="744"  y="259" fill="#164E63"   font-size="12" font-weight="600">admin</text>
<text x="744"  y="271" fill="#164E6366" font-size="10">Admin User</text>
<rect x="944" y="248" width="86" height="18" rx="9" fill="#FFF1F2" stroke="#FECDD3" stroke-width="1"/>
<text x="987" y="260" text-anchor="middle" fill="#e11d48" font-size="10" font-weight="700">Quản trị viên</text>
<circle cx="1072" cy="258" r="3.5" fill="#22c55e"/>
<text x="1082" y="262" fill="#16a34a" font-size="11" font-weight="600">Hoạt động</text>
<text x="1180" y="262" fill="#164E6366" font-size="10" class="mono">01/01/2026</text>
<text x="1300" y="262" fill="#164E6355" font-size="12">👁 🗑</text>

<!-- Row 2: dr_nguyen -->
<text x="744"  y="293" fill="#164E63"   font-size="12" font-weight="600">dr_nguyen</text>
<text x="744"  y="305" fill="#164E6366" font-size="10">Nguyễn Văn An</text>
<rect x="944" y="282" width="64" height="18" rx="9" fill="#EFF6FF" stroke="#BFDBFE" stroke-width="1"/>
<text x="976" y="294" text-anchor="middle" fill="#0891B2" font-size="10" font-weight="700">Bác sĩ</text>
<circle cx="1072" cy="292" r="3.5" fill="#22c55e"/>
<text x="1082" y="296" fill="#16a34a" font-size="11" font-weight="600">Hoạt động</text>
<text x="1180" y="296" fill="#164E6366" font-size="10" class="mono">15/01/2026</text>
<text x="1300" y="296" fill="#164E6355" font-size="12">👁 🗑</text>
<line x1="744" y1="310" x2="1408" y2="310" stroke="#F8FAFC" stroke-width="1"/>

<!-- Row 3: nurse_tran -->
<rect x="728" y="311" width="696" height="32" fill="#F8FAFC"/>
<text x="744"  y="331" fill="#164E63"   font-size="12" font-weight="600">nurse_tran</text>
<text x="744"  y="343" fill="#164E6366" font-size="10">Trần Thị Bình</text>
<rect x="944" y="320" width="54" height="18" rx="9" fill="#ECFDF5" stroke="#A7F3D0" stroke-width="1"/>
<text x="971" y="332" text-anchor="middle" fill="#059669" font-size="10" font-weight="700">Y tá</text>
<circle cx="1072" cy="330" r="3.5" fill="#22c55e"/>
<text x="1082" y="334" fill="#16a34a" font-size="11" font-weight="600">Hoạt động</text>
<text x="1180" y="334" fill="#164E6366" font-size="10" class="mono">20/01/2026</text>
<text x="1300" y="334" fill="#164E6355" font-size="12">👁 🗑</text>

<!-- Row 4: dr_le -->
<text x="744"  y="365" fill="#164E63"   font-size="12" font-weight="600">dr_le</text>
<text x="744"  y="377" fill="#164E6366" font-size="10">Lê Hoàng Cường</text>
<rect x="944" y="354" width="64" height="18" rx="9" fill="#EFF6FF" stroke="#BFDBFE" stroke-width="1"/>
<text x="976" y="366" text-anchor="middle" fill="#0891B2" font-size="10" font-weight="700">Bác sĩ</text>
<circle cx="1072" cy="364" r="3.5" fill="#22c55e"/>
<text x="1082" y="368" fill="#16a34a" font-size="11" font-weight="600">Hoạt động</text>
<text x="1180" y="368" fill="#164E6366" font-size="10" class="mono">01/02/2026</text>
<text x="1300" y="368" fill="#164E6355" font-size="12">👁 🗑</text>
<line x1="744" y1="382" x2="1408" y2="382" stroke="#F8FAFC" stroke-width="1"/>

<!-- Row 5: researcher_vu -->
<rect x="728" y="383" width="696" height="32" fill="#F8FAFC"/>
<text x="744"  y="403" fill="#164E63"   font-size="12" font-weight="600">researcher_vu</text>
<text x="744"  y="415" fill="#164E6366" font-size="10">Vũ Minh Đức</text>
<rect x="944" y="392" width="96" height="18" rx="9" fill="#FFFBEB" stroke="#FDE68A" stroke-width="1"/>
<text x="992" y="404" text-anchor="middle" fill="#d97706" font-size="10" font-weight="700">Nghiên cứu viên</text>
<circle cx="1072" cy="402" r="3.5" fill="#22c55e"/>
<text x="1082" y="406" fill="#16a34a" font-size="11" font-weight="600">Hoạt động</text>
<text x="1180" y="406" fill="#164E6366" font-size="10" class="mono">10/02/2026</text>
<text x="1300" y="406" fill="#164E6355" font-size="12">👁 🗑</text>

<!-- Row 6: dr_pham (locked) -->
<text x="744"  y="437" fill="#164E63"   font-size="12" font-weight="600">dr_pham</text>
<text x="744"  y="449" fill="#164E6366" font-size="10">Phạm Thị Dung</text>
<rect x="944" y="426" width="64" height="18" rx="9" fill="#EFF6FF" stroke="#BFDBFE" stroke-width="1"/>
<text x="976" y="438" text-anchor="middle" fill="#0891B2" font-size="10" font-weight="700">Bác sĩ</text>
<circle cx="1072" cy="436" r="3.5" fill="#cbd5e1"/>
<text x="1082" y="440" fill="#94a3b8" font-size="11" font-weight="600">Khóa</text>
<text x="1180" y="440" fill="#164E6366" font-size="10" class="mono">15/03/2026</text>
<text x="1300" y="440" fill="#164E6355" font-size="12">👁 🗑</text>
<line x1="744" y1="454" x2="1408" y2="454" stroke="#F8FAFC" stroke-width="1"/>

<!-- Row 7: dr_hoang -->
<rect x="728" y="455" width="696" height="32" fill="#F8FAFC"/>
<text x="744"  y="475" fill="#164E63"   font-size="12" font-weight="600">dr_hoang</text>
<text x="744"  y="487" fill="#164E6366" font-size="10">Hoàng Văn Em</text>
<rect x="944" y="464" width="64" height="18" rx="9" fill="#EFF6FF" stroke="#BFDBFE" stroke-width="1"/>
<text x="976" y="476" text-anchor="middle" fill="#0891B2" font-size="10" font-weight="700">Bác sĩ</text>
<circle cx="1072" cy="474" r="3.5" fill="#22c55e"/>
<text x="1082" y="478" fill="#16a34a" font-size="11" font-weight="600">Hoạt động</text>
<text x="1180" y="478" fill="#164E6366" font-size="10" class="mono">01/04/2026</text>
<text x="1300" y="478" fill="#164E6355" font-size="12">👁 🗑</text>

<!-- Add user form preview (collapsed) -->
<line x1="744" y1="500" x2="1408" y2="500" stroke="#F1F5F9" stroke-width="1"/>
<rect x="744" y="510" width="648" height="94" rx="10" fill="#EFF6FF" stroke="#BFDBFE" stroke-width="1"/>
<text x="760" y="532" fill="#164E63" font-size="12" font-weight="600">Tạo tài khoản mới</text>
<!-- input fields mock -->
<rect x="760" y="540" width="148" height="26" rx="6" fill="white" stroke="#E2E8F0"/>
<text x="768" y="557" fill="#94a3b8" font-size="10">Tên đăng nhập</text>
<rect x="916" y="540" width="148" height="26" rx="6" fill="white" stroke="#E2E8F0"/>
<text x="924" y="557" fill="#94a3b8" font-size="10">Email</text>
<rect x="1072" y="540" width="148" height="26" rx="6" fill="white" stroke="#E2E8F0"/>
<text x="1080" y="557" fill="#94a3b8" font-size="10">Mật khẩu</text>
<rect x="1228" y="540" width="148" height="26" rx="6" fill="white" stroke="#E2E8F0"/>
<text x="1236" y="557" fill="#94a3b8" font-size="10">Họ và tên</text>
<!-- role select + submit -->
<rect x="760" y="574" width="140" height="26" rx="6" fill="white" stroke="#E2E8F0"/>
<text x="768" y="591" fill="#164E6388" font-size="10">Bác sĩ ▾</text>
<rect x="908" y="574" width="148" height="26" rx="6" fill="#0891B2"/>
<text x="982" y="591" text-anchor="middle" fill="white" font-size="11" font-weight="600">Tạo tài khoản</text>
<text x="1068" y="591" fill="#164E6355" font-size="11">Hủy</text>

<!-- ══════════════════════════════════════════════
     BOTTOM 3-COLUMN  y=748
     Severity  x=16..472    w=456
     Status    x=488..944   w=456
     Symptoms  x=960..1424  w=464
══════════════════════════════════════════════ -->

<!-- ── Phân bố mức độ (Severity Pie) ── -->
<rect x="16" y="748" width="456" height="290" rx="12" fill="white" stroke="#F1F5F9" stroke-width="1"/>
<text x="32" y="774" fill="#164E63" font-size="13" font-weight="700">Phân bố mức độ</text>

<!-- Donut chart cx=180, cy=888, outer=72, inner=38 -->
<!-- mild (60%): 0°→216° -->
<path d="M 180 816 A 72 72 0 1 1 119.0 960.2 L 135.8 949.4 A 38 38 0 1 0 180 850 Z" fill="#22c55e"/>
<!-- moderate (25%): 216°→306° -->
<path d="M 119.0 960.2 A 72 72 0 0 1 101.4 845.6 L 120.8 863.9 A 38 38 0 0 0 135.8 949.4 Z" fill="#f59e0b"/>
<!-- severe (10%): 306°→342° -->
<path d="M 101.4 845.6 A 72 72 0 0 1 153.6 818.2 L 162.4 836.4 A 38 38 0 0 0 120.8 863.9 Z" fill="#f97316"/>
<!-- critical (5%): 342°→360° -->
<path d="M 153.6 818.2 A 72 72 0 0 1 180 816 L 180 850 A 38 38 0 0 0 162.4 836.4 Z" fill="#ef4444"/>

<!-- Legend -->
<rect x="270" y="840" width="12" height="12" rx="3" fill="#22c55e"/>
<text x="288" y="851" fill="#164E6377" font-size="12">Nhẹ</text>
<text x="368" y="851" fill="#164E63" font-size="12" font-weight="700" class="mono">104</text>

<rect x="270" y="862" width="12" height="12" rx="3" fill="#f59e0b"/>
<text x="288" y="873" fill="#164E6377" font-size="12">Vừa</text>
<text x="368" y="873" fill="#164E63" font-size="12" font-weight="700" class="mono">43</text>

<rect x="270" y="884" width="12" height="12" rx="3" fill="#f97316"/>
<text x="288" y="895" fill="#164E6377" font-size="12">Nặng</text>
<text x="368" y="895" fill="#164E63" font-size="12" font-weight="700" class="mono">17</text>

<rect x="270" y="906" width="12" height="12" rx="3" fill="#ef4444"/>
<text x="288" y="917" fill="#164E6377" font-size="12">Nguy kịch</text>
<text x="368" y="917" fill="#164E63" font-size="12" font-weight="700" class="mono">9</text>

<!-- ── Trạng thái bệnh án (Status Bars) ── -->
<rect x="488" y="748" width="456" height="290" rx="12" fill="white" stroke="#F1F5F9" stroke-width="1"/>
<text x="504" y="774" fill="#164E63" font-size="13" font-weight="700">Trạng thái bệnh án</text>

<!-- Bar: Chờ dự đoán 12 / 44 = 27% -->
<text x="504" y="814" fill="#164E6366" font-size="12">Chờ dự đoán</text>
<text x="920" y="814" text-anchor="end" fill="#164E63" font-size="12" font-weight="700" class="mono">12</text>
<rect x="504" y="820" width="416" height="10" rx="5" fill="#F1F5F9"/>
<rect x="504" y="820" width="113" height="10" rx="5" fill="#f59e0b"/>

<!-- Bar: Đã dự đoán 25 / 44 = 57% -->
<text x="504" y="856" fill="#164E6366" font-size="12">Đã dự đoán</text>
<text x="920" y="856" text-anchor="end" fill="#164E63" font-size="12" font-weight="700" class="mono">25</text>
<rect x="504" y="862" width="416" height="10" rx="5" fill="#F1F5F9"/>
<rect x="504" y="862" width="237" height="10" rx="5" fill="#06b6d4"/>

<!-- Bar: Đã xác nhận 7 / 44 = 16% -->
<text x="504" y="898" fill="#164E6366" font-size="12">Đã xác nhận</text>
<text x="920" y="898" text-anchor="end" fill="#164E63" font-size="12" font-weight="700" class="mono">7</text>
<rect x="504" y="904" width="416" height="10" rx="5" fill="#F1F5F9"/>
<rect x="504" y="904" width="67" height="10" rx="5" fill="#22c55e"/>

<!-- Bar: Lưu trữ 0 -->
<text x="504" y="940" fill="#164E6366" font-size="12">Lưu trữ</text>
<text x="920" y="940" text-anchor="end" fill="#164E63" font-size="12" font-weight="700" class="mono">0</text>
<rect x="504" y="946" width="416" height="10" rx="5" fill="#F1F5F9"/>

<!-- ── Triệu chứng phổ biến ── -->
<rect x="960" y="748" width="464" height="290" rx="12" fill="white" stroke="#F1F5F9" stroke-width="1"/>
<text x="976" y="774" fill="#164E63" font-size="13" font-weight="700">Triệu chứng phổ biến</text>

<!-- Item list -->
<!-- 1 -->
<rect x="976" y="786" width="22" height="22" rx="5" fill="#EFF6FF" stroke="#DBEAFE" stroke-width="1"/>
<text x="987" y="801" text-anchor="middle" fill="#0891B2" font-size="10" font-weight="700">1</text>
<text x="1005" y="801" fill="#164E6377" font-size="11">sốt cao 39°C, ho có đờm vàng</text>
<rect x="1368" y="786" width="36" height="22" rx="11" fill="#EFF6FF" stroke="#DBEAFE" stroke-width="1"/>
<text x="1386" y="801" text-anchor="middle" fill="#0891B2" font-size="11" font-weight="700">28</text>
<!-- 2 -->
<rect x="976" y="814" width="22" height="22" rx="5" fill="#EFF6FF" stroke="#DBEAFE" stroke-width="1"/>
<text x="987" y="829" text-anchor="middle" fill="#0891B2" font-size="10" font-weight="700">2</text>
<text x="1005" y="829" fill="#164E6377" font-size="11">đau thượng vị, ợ chua sau ăn</text>
<rect x="1368" y="814" width="36" height="22" rx="11" fill="#EFF6FF" stroke="#DBEAFE" stroke-width="1"/>
<text x="1386" y="829" text-anchor="middle" fill="#0891B2" font-size="11" font-weight="700">22</text>
<!-- 3 -->
<rect x="976" y="842" width="22" height="22" rx="5" fill="#EFF6FF" stroke="#DBEAFE" stroke-width="1"/>
<text x="987" y="857" text-anchor="middle" fill="#0891B2" font-size="10" font-weight="700">3</text>
<text x="1005" y="857" fill="#164E6377" font-size="11">khó thở, thở rít, SpO2 thấp</text>
<rect x="1368" y="842" width="36" height="22" rx="11" fill="#EFF6FF" stroke="#DBEAFE" stroke-width="1"/>
<text x="1386" y="857" text-anchor="middle" fill="#0891B2" font-size="11" font-weight="700">18</text>
<!-- 4 -->
<rect x="976" y="870" width="22" height="22" rx="5" fill="#EFF6FF" stroke="#DBEAFE" stroke-width="1"/>
<text x="987" y="885" text-anchor="middle" fill="#0891B2" font-size="10" font-weight="700">4</text>
<text x="1005" y="885" fill="#164E6377" font-size="11">huyết áp 150/90, đau đầu chẩm</text>
<rect x="1368" y="870" width="36" height="22" rx="11" fill="#EFF6FF" stroke="#DBEAFE" stroke-width="1"/>
<text x="1386" y="885" text-anchor="middle" fill="#0891B2" font-size="11" font-weight="700">15</text>
<!-- 5 -->
<rect x="976" y="898" width="22" height="22" rx="5" fill="#EFF6FF" stroke="#DBEAFE" stroke-width="1"/>
<text x="987" y="913" text-anchor="middle" fill="#0891B2" font-size="10" font-weight="700">5</text>
<text x="1005" y="913" fill="#164E6377" font-size="11">đau nửa đầu, sợ ánh sáng</text>
<rect x="1368" y="898" width="36" height="22" rx="11" fill="#EFF6FF" stroke="#DBEAFE" stroke-width="1"/>
<text x="1386" y="913" text-anchor="middle" fill="#0891B2" font-size="11" font-weight="700">12</text>
<!-- 6 -->
<rect x="976" y="926" width="22" height="22" rx="5" fill="#EFF6FF" stroke="#DBEAFE" stroke-width="1"/>
<text x="987" y="941" text-anchor="middle" fill="#0891B2" font-size="10" font-weight="700">6</text>
<text x="1005" y="941" fill="#164E6377" font-size="11">nổi mề đay, ngứa toàn thân</text>
<rect x="1368" y="926" width="36" height="22" rx="11" fill="#EFF6FF" stroke="#DBEAFE" stroke-width="1"/>
<text x="1386" y="941" text-anchor="middle" fill="#0891B2" font-size="11" font-weight="700">10</text>
<!-- 7 -->
<rect x="976" y="954" width="22" height="22" rx="5" fill="#EFF6FF" stroke="#DBEAFE" stroke-width="1"/>
<text x="987" y="969" text-anchor="middle" fill="#0891B2" font-size="10" font-weight="700">7</text>
<text x="1005" y="969" fill="#164E6377" font-size="11">đau khớp gối, sưng gout</text>
<rect x="1368" y="954" width="36" height="22" rx="11" fill="#EFF6FF" stroke="#DBEAFE" stroke-width="1"/>
<text x="1386" y="969" text-anchor="middle" fill="#0891B2" font-size="11" font-weight="700">8</text>
<!-- 8 -->
<rect x="976" y="982" width="22" height="22" rx="5" fill="#EFF6FF" stroke="#DBEAFE" stroke-width="1"/>
<text x="987" y="997" text-anchor="middle" fill="#0891B2" font-size="10" font-weight="700">8</text>
<text x="1005" y="997" fill="#164E6377" font-size="11">đường huyết cao, HbA1c &gt;7%</text>
<rect x="1368" y="982" width="36" height="22" rx="11" fill="#EFF6FF" stroke="#DBEAFE" stroke-width="1"/>
<text x="1386" y="997" text-anchor="middle" fill="#0891B2" font-size="11" font-weight="700">7</text>

<!-- ══════════════════════════════════════════════
     SYSTEM HEALTH FOOTER  y=1054
══════════════════════════════════════════════ -->
<rect x="16" y="1054" width="1408" height="56" rx="12" fill="white" stroke="#F1F5F9" stroke-width="1"/>
<text x="32" y="1086" fill="#164E6344" font-size="9" font-weight="700" letter-spacing="2">TRẠNG THÁI HỆ THỐNG</text>

<!-- Backend API -->
<circle cx="200" cy="1082" r="3.5" fill="#22c55e"/>
<circle cx="200" cy="1082" r="6" fill="#22c55e" fill-opacity="0.25"/>
<text x="212" y="1086" fill="#164E6366" font-size="12">Backend API</text>
<text x="295" y="1086" fill="#16a34a" font-size="12" font-weight="700" class="mono">ONLINE</text>
<text x="355" y="1086" fill="#164E6344" font-size="11" class="mono">12ms</text>

<line x1="400" y1="1068" x2="400" y2="1096" stroke="#E2E8F0" stroke-width="1"/>

<!-- Redis Cache -->
<circle cx="420" cy="1082" r="3.5" fill="#22c55e"/>
<text x="432" y="1086" fill="#164E6366" font-size="12">Redis Cache</text>
<text x="514" y="1086" fill="#16a34a" font-size="12" font-weight="700" class="mono">ONLINE</text>

<line x1="580" y1="1068" x2="580" y2="1096" stroke="#E2E8F0" stroke-width="1"/>

<!-- ML Model -->
<circle cx="600" cy="1082" r="3.5" fill="#f59e0b"/>
<circle cx="600" cy="1082" r="6" fill="#f59e0b" fill-opacity="0.25"/>
<text x="612" y="1086" fill="#164E6366" font-size="12">ML Model</text>
<text x="680" y="1086" fill="#d97706" font-size="12" font-weight="700" class="mono">FALLBACK</text>
<text x="762" y="1086" fill="#164E6344" font-size="10">(model files chưa có)</text>

<line x1="870" y1="1068" x2="870" y2="1096" stroke="#E2E8F0" stroke-width="1"/>

<!-- Database -->
<circle cx="890" cy="1082" r="3.5" fill="#22c55e"/>
<text x="902" y="1086" fill="#164E6366" font-size="12">Cơ sở dữ liệu</text>
<text x="992" y="1086" fill="#16a34a" font-size="12" font-weight="700" class="mono">KẾT NỐI</text>

<!-- Right side: last refresh time -->
<text x="1380" y="1086" text-anchor="end" fill="#164E6344" font-size="11">Cập nhật lần cuối: 10:45:23</text>

</svg>
